<svg width="48" height="48" viewBox="0 0 48 48" fill="none" xmlns="http://www.w3.org/2000/svg">
<rect width="48" height="48" rx="8" fill="#F8FFE6" style="fill:#F8FFE6;fill:color(display-p3 0.9725 1.0000 0.9020);fill-opacity:1;"/>
<path d="M12.4984 35.9094L20.9838 27.4241M31.6691 23.6508L29.1291 31.2721C29.0884 31.394 29.0189 31.5043 28.9265 31.5936C28.8341 31.683 28.7216 31.7488 28.5984 31.7854L13.0278 36.4148C12.8875 36.4564 12.7385 36.4588 12.5969 36.4217C12.4554 36.3845 12.3267 36.3093 12.225 36.2041C12.1233 36.0989 12.0523 35.9678 12.0199 35.8251C11.9875 35.6824 11.9948 35.5336 12.0411 35.3948L17.0971 20.2294C17.1333 20.1205 17.1926 20.0207 17.2708 19.9368C17.349 19.8528 17.4444 19.7866 17.5504 19.7428L24.7331 16.7854C24.8791 16.7251 25.0397 16.7094 25.1947 16.7403C25.3496 16.7711 25.492 16.8471 25.6038 16.9588L31.4758 22.8321C31.5808 22.9371 31.6546 23.0694 31.6887 23.214C31.7229 23.3586 31.7161 23.5098 31.6691 23.6508Z" stroke="#4C6B00" style="stroke:#4C6B00;stroke:color(display-p3 0.2980 0.4196 0.0000);stroke-opacity:1;" stroke-width="1.5" stroke-linecap="round" stroke-linejoin="round"/>
<path d="M32.6411 12.6829L35.7931 15.8349C36.03 16.0615 36.2192 16.3331 36.3496 16.6338C36.4801 16.9346 36.5492 17.2583 36.5528 17.5861C36.5564 17.9139 36.4945 18.2391 36.3707 18.5427C36.247 18.8462 36.0638 19.122 35.832 19.3538C35.6002 19.5856 35.3245 19.7687 35.0209 19.8925C34.7174 20.0163 34.3922 20.0781 34.0644 20.0745C33.7366 20.0709 33.4128 20.0018 33.1121 19.8714C32.8114 19.7409 32.5397 19.5517 32.3131 19.3149L29.1598 16.1629C28.715 15.698 28.47 15.0774 28.4771 14.4341C28.4842 13.7908 28.7429 13.1758 29.1978 12.7209C29.6528 12.266 30.2677 12.0073 30.911 12.0002C31.5544 11.993 32.1762 12.2381 32.6411 12.6829Z" fill="#4C6B00" stroke="#4C6B00" style="fill:#4C6B00;fill:color(display-p3 0.2980 0.4196 0.0000);fill-opacity:1;stroke:#4C6B00;stroke:color(display-p3 0.2980 0.4196 0.0000);stroke-opacity:1;" stroke-width="1.5" stroke-linecap="round" stroke-linejoin="round"/>
<path d="M23.8117 24.595C23.6273 24.4039 23.4066 24.2516 23.1626 24.1467C22.9185 24.0419 22.6561 23.9868 22.3905 23.9845C22.125 23.9821 21.8616 24.0327 21.6158 24.1333C21.37 24.2339 21.1467 24.3824 20.959 24.5702C20.7712 24.7579 20.6227 24.9813 20.5221 25.227C20.4215 25.4728 20.3709 25.7362 20.3732 26.0018C20.3756 26.2673 20.4307 26.5298 20.5355 26.7738C20.6404 27.0178 20.7927 27.2385 20.9837 27.423C21.3609 27.7873 21.8662 27.9889 22.3905 27.9843C22.9149 27.9797 23.4166 27.7694 23.7874 27.3986C24.1582 27.0278 24.3685 26.5261 24.3731 26.0018C24.3777 25.4774 24.1761 24.9722 23.8117 24.595Z" stroke="#4C6B00" style="stroke:#4C6B00;stroke:color(display-p3 0.2980 0.4196 0.0000);stroke-opacity:1;" stroke-width="1.5" stroke-linecap="round" stroke-linejoin="round"/>
</svg>
