<svg width="48" height="48" viewBox="0 0 48 48" fill="none" xmlns="http://www.w3.org/2000/svg">
<rect width="48" height="48" rx="8" fill="#FFFBEE" style="fill:#FFFBEE;fill:color(display-p3 1.0000 0.9853 0.9322);fill-opacity:1;"/>
<path d="M24.125 29.0312C24.125 29.1688 24.2313 29.2812 24.3594 29.2812H30.1406C30.2687 29.2812 30.375 29.1688 30.375 29.0312V27.5312C30.375 27.3937 30.2687 27.2812 30.1406 27.2812H24.3594C24.2313 27.2812 24.125 27.3937 24.125 27.5312V29.0312ZM18.0344 29.2219L24.0344 24.1906C24.1531 24.0906 24.1531 23.9062 24.0344 23.8062L18.0344 18.7781C17.9982 18.7473 17.9539 18.7276 17.9067 18.7212C17.8596 18.7148 17.8117 18.7221 17.7686 18.7422C17.7255 18.7622 17.689 18.7943 17.6636 18.8344C17.6381 18.8746 17.6247 18.9212 17.625 18.9688V20.9281C17.625 21.0031 17.6562 21.0719 17.7156 21.1187L21.1469 24L17.7156 26.8813C17.6877 26.9046 17.6651 26.9338 17.6495 26.9667C17.6339 26.9996 17.6255 27.0355 17.625 27.0719V29.0312C17.625 29.2438 17.8719 29.3594 18.0344 29.2219ZM35.5 11.5H12.5C11.9469 11.5 11.5 11.9469 11.5 12.5V35.5C11.5 36.0531 11.9469 36.5 12.5 36.5H35.5C36.0531 36.5 36.5 36.0531 36.5 35.5V12.5C36.5 11.9469 36.0531 11.5 35.5 11.5ZM34.25 34.25H13.75V13.75H34.25V34.25Z" fill="#FDB600" style="fill:#FDB600;fill:color(display-p3 0.9917 0.7140 0.0000);fill-opacity:1;"/>
</svg>
