<svg width="48" height="48" viewBox="0 0 48 48" fill="none" xmlns="http://www.w3.org/2000/svg">
<rect width="48" height="48" rx="8" fill="#F0F9FF" style="fill:#F0F9FF;fill:color(display-p3 0.9403 0.9749 1.0000);fill-opacity:1;"/>
<g clip-path="url(#clip0_1059_3749)">
<path d="M30.2222 11.5557H17.7778C17.3063 11.5557 16.8541 11.743 16.5207 12.0764C16.1873 12.4098 16 12.8619 16 13.3334V34.6668C16 35.1383 16.1873 35.5905 16.5207 35.9239C16.8541 36.2573 17.3063 36.4446 17.7778 36.4446H30.2222C30.6937 36.4446 31.1459 36.2573 31.4793 35.9239C31.8127 35.5905 32 35.1383 32 34.6668V13.3334C32 12.8619 31.8127 12.4098 31.4793 12.0764C31.1459 11.743 30.6937 11.5557 30.2222 11.5557ZM24.8889 34.6668H23.1111V32.889H24.8889V34.6668ZM17.7778 31.1112V13.3334H30.2222V31.1112H17.7778Z" fill="#0094FF" style="fill:#0094FF;fill:color(display-p3 0.0000 0.5800 1.0000);fill-opacity:1;"/>
</g>
<defs>
<clipPath id="clip0_1059_3749">
<rect width="32" height="32" fill="white" style="fill:white;fill-opacity:1;" transform="translate(8 8)"/>
</clipPath>
</defs>
</svg>
