<svg width="48" height="48" viewBox="0 0 48 48" fill="none" xmlns="http://www.w3.org/2000/svg">
<rect width="48" height="48" rx="8" fill="#FFFBEE" style="fill:#FFFBEE;fill:color(display-p3 1.0000 0.9853 0.9322);fill-opacity:1;"/>
<path d="M36.1333 24.6666L38 26.5466L29.2933 35.3333L24.6667 30.6666L26.5333 28.7866L29.2933 31.5599L36.1333 24.6666ZM21.3333 30.6666L25.3333 34.6666H12V31.9999C12 29.0533 16.7733 26.6666 22.6667 26.6666L25.1867 26.8133L21.3333 30.6666ZM22.6667 13.3333C24.0812 13.3333 25.4377 13.8952 26.4379 14.8953C27.4381 15.8955 28 17.2521 28 18.6666C28 20.0811 27.4381 21.4376 26.4379 22.4378C25.4377 23.438 24.0812 23.9999 22.6667 23.9999C21.2522 23.9999 19.8956 23.438 18.8954 22.4378C17.8952 21.4376 17.3333 20.0811 17.3333 18.6666C17.3333 17.2521 17.8952 15.8955 18.8954 14.8953C19.8956 13.8952 21.2522 13.3333 22.6667 13.3333Z" fill="#FDB600" style="fill:#FDB600;fill:color(display-p3 0.9917 0.7140 0.0000);fill-opacity:1;"/>
</svg>
