<svg width="20" height="28" viewBox="0 0 20 28" fill="none" xmlns="http://www.w3.org/2000/svg">
<path d="M10 0.666626C7.52467 0.666626 5.1507 1.64996 3.40036 3.4003C1.65002 5.15064 0.666687 7.5246 0.666687 9.99996C0.666687 13.1733 2.25335 15.96 4.66669 17.6533V20.6666C4.66669 21.0202 4.80716 21.3594 5.05721 21.6094C5.30726 21.8595 5.6464 22 6.00002 22H14C14.3536 22 14.6928 21.8595 14.9428 21.6094C15.1929 21.3594 15.3334 21.0202 15.3334 20.6666V17.6533C17.7467 15.96 19.3334 13.1733 19.3334 9.99996C19.3334 7.5246 18.35 5.15064 16.5997 3.4003C14.8493 1.64996 12.4754 0.666626 10 0.666626ZM6.00002 26C6.00002 26.3536 6.1405 26.6927 6.39054 26.9428C6.64059 27.1928 6.97973 27.3333 7.33335 27.3333H12.6667C13.0203 27.3333 13.3594 27.1928 13.6095 26.9428C13.8595 26.6927 14 26.3536 14 26V24.6666H6.00002V26Z" fill="#09140C" style="fill:#09140C;fill:color(display-p3 0.0353 0.0784 0.0471);fill-opacity:1;"/>
</svg>
