<svg width="111" height="20" viewBox="0 0 111 20" fill="none" xmlns="http://www.w3.org/2000/svg">
<path fill-rule="evenodd" clip-rule="evenodd" d="M56.4295 0.539551L59.4818 3.59178L51.2261 11.8474L55.949 16.5703L52.8968 19.6225L44.452 11.1777L36.5051 19.1246L33.4529 16.0724L41.3998 8.12551L37.3463 4.07207L40.3986 1.01984L48.1739 8.79518L56.4295 0.539551Z" fill="black" style="fill:black;fill-opacity:1;"/>
<path d="M0 0.480295H4.0825L11.5018 13.4862V0.480295H15.1293V19.1107H11.2364L3.62749 5.87729V19.1107H0V0.480295Z" fill="black" style="fill:black;fill-opacity:1;"/>
<path d="M31.4287 3.77916H21.5701V7.73527H30.6198V10.9709H21.5701V15.7613H31.8838V19.1107H17.7656V0.480295H31.4287V3.77916Z" fill="black" style="fill:black;fill-opacity:1;"/>
<path d="M73.1272 6.29439C72.8323 5.02203 72.1119 4.13306 70.9659 3.62749C70.3255 3.34942 69.6135 3.21039 68.8298 3.21039C67.33 3.21039 66.0955 3.77916 65.1265 4.9167C64.1659 6.04582 63.6857 7.74791 63.6857 10.023C63.6857 12.3149 64.2081 13.937 65.2529 14.8891C66.2978 15.8413 67.4858 16.3174 68.8172 16.3174C70.1233 16.3174 71.1934 15.9424 72.0276 15.1925C72.8618 14.4341 73.3758 13.444 73.5696 12.2222H69.2596V9.11296H77.0201V19.1107H74.4417L74.0499 16.785C73.2999 17.6698 72.6258 18.2933 72.0276 18.6557C70.9996 19.2876 69.7357 19.6036 68.2358 19.6036C65.7669 19.6036 63.7446 18.7483 62.1689 17.0378C60.5258 15.3189 59.7043 12.968 59.7043 9.98507C59.7043 6.96849 60.5342 4.55016 62.1942 2.7301C63.8542 0.910032 66.0492 0 68.7793 0C71.147 0 73.0472 0.602475 74.4796 1.80742C75.9205 3.00395 76.7463 4.4996 76.9569 6.29439H73.1272Z" fill="black" style="fill:black;fill-opacity:1;"/>
<path d="M92.9793 3.77916H83.1206V7.73527H92.1704V10.9709H83.1206V15.7612H93.4343V19.1107H79.3162V0.480295H92.9793V3.77916Z" fill="black" style="fill:black;fill-opacity:1;"/>
<path d="M95.3511 0.480295H99.4336L106.853 13.4862V0.480295H110.48V19.1107H106.588L102.783 12.494L98.9786 5.87729V19.1107H95.3511V0.480295Z" fill="black" style="fill:black;fill-opacity:1;"/>
</svg>
