<svg width="29" height="27" viewBox="0 0 29 27" fill="none" xmlns="http://www.w3.org/2000/svg">
<path d="M21.3334 12C23.2783 12 25.1435 12.7726 26.5188 14.1479C27.8941 15.5231 28.6667 17.3884 28.6667 19.3333C28.6667 21.2783 27.8941 23.1435 26.5188 24.5188C25.1435 25.894 23.2783 26.6667 21.3334 26.6667C19.3884 26.6667 17.5232 25.894 16.1479 24.5188C14.7726 23.1435 14 21.2783 14 19.3333C14 17.3884 14.7726 15.5231 16.1479 14.1479C17.5232 12.7726 19.3884 12 21.3334 12ZM21.3334 14.6667L21.2134 14.676C21.0801 14.7003 20.9575 14.7647 20.8618 14.8604C20.766 14.9562 20.7017 15.0788 20.6774 15.212L20.6667 15.3333V18.6667H17.3307L17.2107 18.6773C17.0775 18.7017 16.9548 18.766 16.8591 18.8617C16.7633 18.9575 16.699 19.0801 16.6747 19.2133L16.664 19.3333L16.6747 19.4533C16.699 19.5865 16.7633 19.7092 16.8591 19.8049C16.9548 19.9007 17.0775 19.965 17.2107 19.9893L17.3307 20H20.6667V23.3373L20.6774 23.4573C20.7017 23.5905 20.766 23.7132 20.8618 23.8089C20.9575 23.9047 21.0801 23.969 21.2134 23.9933L21.3334 24.004L21.4534 23.9933C21.5866 23.969 21.7092 23.9047 21.8049 23.8089C21.9007 23.7132 21.965 23.5905 21.9894 23.4573L22 23.3373V20L25.3387 20.0013L25.4587 19.9907C25.5919 19.9663 25.7145 19.902 25.8103 19.8063C25.906 19.7105 25.9704 19.5879 25.9947 19.4547L26.0054 19.3347L25.9947 19.2147C25.9703 19.0813 25.9057 18.9585 25.8097 18.8627C25.7137 18.767 25.5908 18.7028 25.4574 18.6787L25.3374 18.668H22V15.3347L21.9894 15.2147C21.9653 15.0812 21.901 14.9583 21.8053 14.8623C21.7095 14.7663 21.5867 14.7018 21.4534 14.6773L21.3334 14.6667ZM17.0054 9.33333C17.5332 9.33344 18.0516 9.47279 18.5084 9.73733C18.9651 10.0019 19.344 10.3822 19.6067 10.84C18.228 11.1209 16.9385 11.7332 15.8494 12.6239C14.7602 13.5147 13.9043 14.6571 13.3554 15.9526C12.8065 17.248 12.5811 18.6577 12.6988 20.0597C12.8164 21.4618 13.2735 22.8141 14.0307 24L14.004 23.9987C13.2159 23.9988 12.4354 23.8437 11.7072 23.5422C10.979 23.2407 10.3174 22.7986 9.76005 22.2413C9.20274 21.684 8.76069 21.0223 8.45916 20.2941C8.15762 19.566 8.00251 18.7855 8.00269 17.9973V12.3333C8.00269 11.5377 8.31876 10.7746 8.88137 10.212C9.44398 9.6494 10.207 9.33333 11.0027 9.33333H17.0054ZM7.87469 9.33333C7.16867 10.068 6.74505 11.0286 6.67869 12.0453L6.66935 12.3333V17.9987C6.66935 19.128 6.92402 20.1973 7.38002 21.152C6.93913 21.272 6.47913 21.3324 6.00002 21.3333C5.29952 21.3333 4.60589 21.1953 3.95873 20.9272C3.31158 20.6591 2.72358 20.2662 2.22831 19.7708C1.73305 19.2754 1.34023 18.6873 1.07228 18.0401C0.804334 17.3928 0.666512 16.6992 0.666687 15.9987V12.3333C0.666594 11.5732 0.955081 10.8413 1.47385 10.2857C1.99261 9.73002 2.70297 9.39203 3.46135 9.34L3.66669 9.33333H7.87469ZM24.3334 9.33333C25.129 9.33333 25.8921 9.6494 26.4547 10.212C27.0173 10.7746 27.3334 11.5377 27.3334 12.3333V13.08C25.7212 11.5292 23.5704 10.664 21.3334 10.6667L21.0094 10.6733C20.8014 10.1768 20.504 9.72256 20.132 9.33333H24.3334ZM22.6667 1.33333C23.5507 1.33333 24.3986 1.68452 25.0237 2.30964C25.6488 2.93477 26 3.78261 26 4.66667C26 5.55072 25.6488 6.39857 25.0237 7.02369C24.3986 7.64881 23.5507 8 22.6667 8C21.7826 8 20.9348 7.64881 20.3097 7.02369C19.6845 6.39857 19.3334 5.55072 19.3334 4.66667C19.3334 3.78261 19.6845 2.93477 20.3097 2.30964C20.9348 1.68452 21.7826 1.33333 22.6667 1.33333ZM14 0C15.0609 0 16.0783 0.421427 16.8284 1.17157C17.5786 1.92172 18 2.93913 18 4C18 5.06087 17.5786 6.07828 16.8284 6.82843C16.0783 7.57857 15.0609 8 14 8C12.9392 8 11.9217 7.57857 11.1716 6.82843C10.4214 6.07828 10 5.06087 10 4C10 2.93913 10.4214 1.92172 11.1716 1.17157C11.9217 0.421427 12.9392 0 14 0ZM5.33335 1.33333C6.21741 1.33333 7.06526 1.68452 7.69038 2.30964C8.3155 2.93477 8.66669 3.78261 8.66669 4.66667C8.66669 5.55072 8.3155 6.39857 7.69038 7.02369C7.06526 7.64881 6.21741 8 5.33335 8C4.4493 8 3.60145 7.64881 2.97633 7.02369C2.35121 6.39857 2.00002 5.55072 2.00002 4.66667C2.00002 3.78261 2.35121 2.93477 2.97633 2.30964C3.60145 1.68452 4.4493 1.33333 5.33335 1.33333Z" fill="#09140C" style="fill:#09140C;fill:color(display-p3 0.0353 0.0784 0.0471);fill-opacity:1;"/>
</svg>
