<svg width="26" height="23" viewBox="0 0 26 23" fill="none" xmlns="http://www.w3.org/2000/svg">
<path d="M24.1333 11.6667L26 13.5467L17.2933 22.3334L12.6667 17.6667L14.5333 15.7867L17.2933 18.56L24.1333 11.6667ZM9.33333 17.6667L13.3333 21.6667H0V19C0 16.0534 4.77333 13.6667 10.6667 13.6667L13.1867 13.8134L9.33333 17.6667ZM10.6667 0.333374C12.0812 0.333374 13.4377 0.895277 14.4379 1.89547C15.4381 2.89566 16 4.25222 16 5.66671C16 7.0812 15.4381 8.43775 14.4379 9.43794C13.4377 10.4381 12.0812 11 10.6667 11C9.25218 11 7.89562 10.4381 6.89543 9.43794C5.89524 8.43775 5.33333 7.0812 5.33333 5.66671C5.33333 4.25222 5.89524 2.89566 6.89543 1.89547C7.89562 0.895277 9.25218 0.333374 10.6667 0.333374Z" fill="#09140C" style="fill:#09140C;fill:color(display-p3 0.0353 0.0784 0.0471);fill-opacity:1;"/>
</svg>
